<svg width="48" height="48" viewBox="0 0 48 48" fill="none" xmlns="http://www.w3.org/2000/svg">
<path fill-rule="evenodd" clip-rule="evenodd" d="M30.8634 31.9477V32.7503C34.3428 33.3958 48.2332 36.5274 47.997 45.4252C47.997 45.9069 47.5903 46.2975 47.0886 46.2975H0.911438C0.40974 46.2975 0.00297649 45.9069 0.00297649 45.4252C-0.233224 36.5274 13.6572 33.3958 17.1366 32.7503V31.9477C16.8989 31.7615 16.6716 31.5635 16.4552 31.3545C14.7051 29.5073 13.6024 27.1794 13.3029 24.6987C11.7303 24.4608 10.3162 23.6442 9.36014 22.4219C8.04286 20.6336 7.92477 18.0777 9.024 14.8327C9.08862 14.6465 9.2166 14.4867 9.38739 14.3791L9.88704 14.0563C9.81334 11.144 10.8615 8.3081 12.8305 6.09196C15.2742 3.4837 19.0353 2.13159 23.9955 2.13159C28.9647 2.14904 32.7167 3.4837 35.1605 6.12685C37.1294 8.34299 38.1776 11.1789 38.1039 14.0912L38.6035 14.414C38.7743 14.5216 38.9023 14.6814 38.9669 14.8676C40.0662 18.0952 39.948 20.6685 38.6308 22.4568C37.6711 23.6705 36.257 24.4779 34.6881 24.7074C34.3897 27.1842 33.2905 29.5088 31.5448 31.3545C31.3267 31.5639 31.0996 31.7645 30.8634 31.9477ZM10.8318 21.4013C11.313 22.0322 11.9858 22.5045 12.7578 22.7534C11.661 21.5567 11.1255 19.9793 11.277 18.3918C11.454 17.4374 11.9789 16.5747 12.7578 15.958C13.1757 7.21726 19.5349 6.2577 22.2603 6.2577C22.841 6.25606 23.4212 6.29684 23.9955 6.37982C24.5698 6.29695 25.1499 6.25606 25.7306 6.2577C28.4742 6.2577 34.8425 7.2347 35.2331 15.958C36.007 16.5797 36.5255 17.4454 36.6958 18.4005C36.8462 19.9879 36.3108 21.5649 35.215 22.7621C35.9898 22.5137 36.6656 22.0415 37.15 21.41C38.0857 20.1364 38.1402 18.1999 37.3317 15.6614L36.6685 15.2339C36.3895 15.0551 36.2358 14.7433 36.2688 14.4227C36.4216 11.8155 35.5385 9.24967 33.7978 7.24343C31.7083 5.01027 28.4106 3.8588 23.9955 3.87625C19.5803 3.89369 16.2826 5.01027 14.2295 7.24343C12.4888 9.24967 11.6056 11.8155 11.7585 14.4227C11.7914 14.7433 11.6378 15.0551 11.3588 15.2339L10.6956 15.6614C9.88704 18.2086 9.9688 20.1364 10.8773 21.41L10.8318 21.4013ZM33.4253 15.6003C29.6133 15.8119 25.8251 14.8986 22.5692 12.9833C22.2007 12.7348 21.6982 12.7831 21.3882 13.0967C19.5712 14.9722 16.2554 15.4084 14.6565 15.5044C15.147 9.33701 19.0353 7.99363 22.3057 7.99363C22.8263 7.99003 23.3461 8.03092 23.8592 8.11575C23.9791 8.13931 24.1027 8.13931 24.2226 8.11575C24.7356 8.03114 25.2555 7.99025 25.776 7.99363C29.0193 7.99363 32.9256 9.3719 33.3799 15.5916L33.4253 15.6003ZM15.0108 22.9279L14.9744 22.9191L14.9744 22.922C14.9734 23.0557 14.9409 27.4404 17.7816 30.1595C19.3925 31.6411 21.5677 32.4203 23.7956 32.3141H24.2498C26.4825 32.4226 28.6625 31.6396 30.2729 30.1507C31.5076 28.8579 32.3497 27.265 32.7076 25.5448L28.5378 27.6908C28.5419 27.7693 28.5419 27.8478 28.5378 27.9263C28.5381 28.5692 28.2817 29.1878 27.8213 29.6547C26.8279 30.6622 25.1719 30.7057 24.1226 29.7519C23.0734 28.798 23.0281 27.2078 24.0215 26.2003C25.0149 25.1928 26.6709 25.1492 27.7202 26.1031L33.0074 23.3815V22.9279C33.0055 22.7128 33.0863 22.5047 33.2345 22.3434C34.4791 20.9739 35.0514 19.709 34.897 18.6971C34.8155 18.1403 34.5246 17.6315 34.0794 17.2665C33.4344 17.3624 32.8166 17.3624 32.208 17.3624C28.6676 17.3415 25.1934 16.4398 22.124 14.7454C19.3986 17.0048 15.147 17.2228 13.9479 17.2228C13.4901 17.5978 13.1952 18.1237 13.1212 18.6971C12.9667 19.7264 13.5391 20.9739 14.7837 22.3434C14.9318 22.5047 15.0127 22.7128 15.0108 22.9279ZM26.7208 27.9263C26.7208 28.355 26.3588 28.7027 25.9123 28.7027C25.4658 28.7027 25.1038 28.355 25.1038 27.9263C25.1038 27.4975 25.4658 27.1499 25.9123 27.1499C26.3588 27.1499 26.7208 27.4975 26.7208 27.9263ZM1.84715 44.5005H23.087V39.8074C19.6348 39.5544 17.1275 38.0453 17.1275 36.0651V34.5036C13.6572 35.2102 2.56484 37.9493 1.84715 44.5005ZM18.9444 36.0651V36.0389V33.0556C20.4545 33.728 22.104 34.0621 23.7683 34.0326H24.2226C25.8869 34.0621 27.5364 33.728 29.0465 33.0556V36.0651C29.0465 36.8938 27.0751 38.0889 23.9955 38.0889C20.9158 38.0889 18.9444 36.8938 18.9444 36.0651ZM24.9039 39.7987V44.5267H46.1438C45.3988 37.9668 34.361 35.2277 30.8634 34.5298V36.0564C30.8634 38.054 28.3561 39.5719 24.9039 39.7987Z" fill="#C09563"/>
</svg>
