<svg width="48" height="48" viewBox="0 0 48 48" fill="none" xmlns="http://www.w3.org/2000/svg">
<path fill-rule="evenodd" clip-rule="evenodd" d="M45.962 19.2931C45.9771 19.3404 45.9869 19.3892 45.9913 19.4386C45.9917 19.4458 45.9937 19.4525 45.9957 19.4592L45.9957 19.4592C45.9978 19.4665 46 19.4738 46 19.4816V43.8499C45.999 44.3058 45.8515 44.7492 45.5793 45.1149C45.5749 45.1214 45.5743 45.1278 45.5692 45.135C45.5667 45.1387 45.5631 45.141 45.5595 45.1435L45.5546 45.1469C45.553 45.1482 45.5513 45.1497 45.5499 45.1514C45.1468 45.6841 44.5179 45.998 43.8499 46H5.14793C4.48248 45.9971 3.85626 45.6848 3.45362 45.155C3.44982 45.1508 3.44498 45.147 3.44053 45.1435C3.43664 45.1404 3.43305 45.1376 3.43069 45.1349C3.42795 45.1317 3.4265 45.1279 3.42502 45.124C3.42383 45.1209 3.42262 45.1177 3.4207 45.1148C3.14849 44.7492 3.00101 44.3058 3 43.8499V19.4796C3 19.472 3.00214 19.465 3.00428 19.4581C3.00643 19.4511 3.00857 19.4441 3.00857 19.4366C3.01319 19.3878 3.02301 19.3398 3.03796 19.2932C3.04779 19.2509 3.0614 19.2096 3.07878 19.1699C3.09885 19.1309 3.12288 19.0942 3.15042 19.0602C3.17806 19.0198 3.21006 18.9825 3.24575 18.9491C3.25125 18.9443 3.25527 18.9386 3.25932 18.9329C3.26368 18.9268 3.26807 18.9206 3.27439 18.9154L10.1647 13.5623V8.01416C10.1647 6.82663 11.1274 5.86402 12.3148 5.86402H20.0818L23.1923 3.44939C23.9605 2.8502 25.0379 2.8502 25.8061 3.44939L28.916 5.86402H36.6829C37.8703 5.86402 38.833 6.82671 38.833 8.01416V13.5622L45.7255 18.9153C45.7299 18.9189 45.7334 18.923 45.7366 18.9273C45.7379 18.9291 45.7392 18.9309 45.7405 18.9328C45.7446 18.9385 45.7486 18.9442 45.7542 18.949C45.7899 18.9825 45.8219 19.0197 45.8495 19.0601C45.877 19.0941 45.9011 19.1309 45.9211 19.1698C45.9384 19.2096 45.9521 19.2509 45.962 19.2931ZM24.9238 4.58031C24.6735 4.38143 24.3191 4.38143 24.0688 4.58031L22.4204 5.86393H26.5772L24.9238 4.58031ZM5.3285 44.5666L24.0689 30.0094C24.3193 29.8108 24.6735 29.8108 24.9239 30.0094L43.6692 44.5666H5.3285ZM44.5664 43.4491L44.5666 43.4492H44.5664V43.4491ZM25.8061 28.8784L44.5664 43.4491V20.5731L32.801 29.709C32.599 29.8695 32.3263 29.909 32.087 29.8125C31.8477 29.716 31.6788 29.4983 31.6447 29.2426C31.6106 28.9868 31.7167 28.7325 31.9223 28.5767L43.8748 19.2952L38.8327 15.3769V20.9149C38.8327 21.3107 38.5119 21.6316 38.1161 21.6316C37.7202 21.6316 37.3994 21.3108 37.3994 20.9149V8.01408C37.3994 7.61823 37.0786 7.29739 36.6827 7.29739H12.3148C11.919 7.29739 11.5982 7.61823 11.5982 8.01408V20.9149C11.5982 21.3107 11.2773 21.6316 10.8815 21.6316C10.4857 21.6316 10.1648 21.3108 10.1648 20.9149V15.3769L5.12281 19.2952L17.0545 28.5601C17.3674 28.8028 17.4244 29.2531 17.1817 29.5661C16.9391 29.879 16.4887 29.936 16.1758 29.6933L4.43117 20.5731V43.4492L23.1923 28.8784C23.9607 28.2797 25.0377 28.2797 25.8061 28.8784Z" fill="#C09563"/>
<path d="M34 20V17C34 12.0294 29.9706 8 25 8C20.0294 8 16 12.0294 16 17C16 21.9706 20.0294 26 25 26C25.4142 26 25.75 25.6643 25.75 25.25C25.75 24.8358 25.4142 24.5001 25 24.5001C20.8579 24.5001 17.5 21.1422 17.5 17.0001C17.5 12.858 20.8579 9.50012 25 9.50012C29.1421 9.50012 32.5 12.858 32.5 17.0001V20.0001C32.5 20.8285 31.8284 21.5001 30.9999 21.5001C30.1715 21.5001 29.4999 20.8285 29.4999 20.0001V17.0001C29.4999 16.5859 29.1642 16.2501 28.7499 16.2501C28.3357 16.2501 28 16.5859 28 17.0001C28 18.6569 26.6568 20.0001 25 20.0001C23.3432 20.0001 22 18.6569 22 17.0001C22 15.3433 23.3432 14.0001 25 14.0001C25.4142 14.0001 25.75 13.6644 25.75 13.2501C25.75 12.8359 25.4142 12.5002 25 12.5002C22.986 12.4957 21.2142 13.83 20.6622 15.7669C20.1103 17.7038 20.9125 19.7716 22.6263 20.8295C24.3402 21.8873 26.5482 21.6776 28.0322 20.3159C28.1955 21.902 29.5741 23.0813 31.1663 22.997C32.7586 22.9127 34.005 21.5945 34 20Z" fill="#C09563"/>
</svg>
