<svg width="48" height="48" viewBox="0 0 48 48" fill="none" xmlns="http://www.w3.org/2000/svg">
<path fill-rule="evenodd" clip-rule="evenodd" d="M35.4023 19.5193C36.9733 21.8703 39.6016 23.2732 42.4333 23.2732H45V34.1099C45 37.2543 43.2997 40.1777 40.5629 41.7374L34.8387 45L29.9173 42.1949H12.8808L3 32.338V3H35.5161V16.5155H34.1613V4.35155H4.35484V31.3825H8.41935V25.9763H22.6452V38.1402H13.8387V40.8433H27.8349C25.8595 39.1911 24.6774 36.7292 24.6774 34.1099V23.2732H27.2442C30.0758 23.2732 32.7042 21.8703 34.2751 19.5193L34.8387 18.6759L35.4023 19.5193ZM5.31271 32.734L12.4839 39.8878V32.734H5.31271ZM9.77419 31.3825V27.3278H21.2903V36.7887H13.8387V31.3825H9.77419ZM39.8909 40.5642C42.2063 39.2438 43.6452 36.7711 43.6452 34.1099V24.6248H42.4333C39.4662 24.6248 36.6915 23.2969 34.8387 21.031C32.986 23.2969 30.2113 24.6248 27.2442 24.6248H26.0323V34.1099C26.0323 36.7711 27.4711 39.2438 29.7865 40.5642L34.8387 43.4444L39.8909 40.5642Z" fill="#C09563"/>
<path d="M40.0532 26L31.1519 35.0703L28.9468 32.8234L28 33.7882L31.1519 37L41 26.9648L40.0532 26Z" fill="#C09563"/>
<rect x="11" y="29" width="9" height="1" fill="#C09563"/>
<rect x="15" y="31" width="5" height="1" fill="#C09563"/>
<rect x="15" y="33" width="5" height="1" fill="#C09563"/>
<rect x="15" y="35" width="5" height="1" fill="#C09563"/>
<path d="M9.64812 9H29.3519C29.7408 9 30 8.79997 30 8.5C30 8.19996 29.7407 8 29.3519 8H9.64812C9.25919 8 9 8.20003 9 8.5C8.99991 8.79997 9.25919 9 9.64812 9Z" fill="#C09563"/>
<path d="M9.64812 13H29.3519C29.7408 13 30 12.8 30 12.5C30 12.2 29.7407 12 29.3519 12H9.64812C9.25919 12 9 12.2 9 12.5C9 12.8 9.25919 13 9.64812 13Z" fill="#C09563"/>
<path d="M9.64812 17H29.3519C29.7408 17 30 16.8 30 16.5C30 16.2 29.7407 16 29.3519 16H9.64812C9.25919 16 9 16.2 9 16.5C9 16.8 9.25919 17 9.64812 17Z" fill="#C09563"/>
<path d="M30 20.5C30 20.2 29.7399 20 29.3499 20H9.65012C9.26 20 9 20.2 9 20.5C9 20.8 9.26008 21 9.65012 21H29.4149C29.7399 21 30 20.75 30 20.5Z" fill="#C09563"/>
</svg>
