<?xml version="1.0" encoding="UTF-8"?>
<svg width="48px" height="48px" viewBox="0 0 48 48" version="1.1" xmlns="http://www.w3.org/2000/svg" xmlns:xlink="http://www.w3.org/1999/xlink">
    <!-- Generator: Sketch 51.3 (57544) - http://www.bohemiancoding.com/sketch -->
    <title>icon_documents</title>
    <desc>Created with Sketch.</desc>
    <defs></defs>
    <g id="icon_documents" stroke="none" stroke-width="1" fill="none" fill-rule="evenodd">
        <rect id="Rectangle-2-Copy-2" fill-rule="nonzero" x="0" y="0" width="48" height="48"></rect>
        <g id="warranty" transform="translate(3.000000, 3.000000)" fill="#C09563" fill-rule="nonzero">
            <path d="M39.4332581,20.2732056 C36.6016452,20.2732056 33.9732581,18.8702998 32.4023226,16.5192837 L31.8387097,15.6759183 L31.2750968,16.5192837 C29.7041613,18.8702998 27.0757742,20.2732056 24.2441613,20.2732056 L21.6774194,20.2732056 L21.6774194,31.1099097 C21.6774194,33.7292079 22.8595161,36.1910508 24.834871,37.8433171 L10.8387097,37.8433171 L10.8387097,35.140223 L19.6451613,35.140223 L19.6451613,22.9762997 L5.41935484,22.9762997 L5.41935484,28.3824878 L1.35483871,28.3824878 L1.35483871,1.35154704 L31.1612903,1.35154704 L31.1612903,13.5154704 L32.516129,13.5154704 L32.516129,0 L0,0 L0,29.3380316 L9.88083871,39.1948641 L26.9172581,39.1948641 L31.8387097,42 L37.5629032,38.7373654 C40.2996774,37.1776802 42,34.2542839 42,31.1099097 L42,20.2732056 L39.4332581,20.2732056 Z M9.48387097,36.8877733 L2.31270968,29.7340349 L9.48387097,29.7340349 L9.48387097,36.8877733 Z M6.77419355,28.3824878 L6.77419355,24.3278467 L18.2903226,24.3278467 L18.2903226,33.788676 L10.8387097,33.788676 L10.8387097,28.3824878 L6.77419355,28.3824878 Z M40.6451613,31.1099097 C40.6451613,33.7711059 39.2063226,36.2437612 36.8909032,37.5642226 L31.8387097,40.4443694 L26.7865161,37.5642226 C24.4710968,36.2437612 23.0322581,33.7711059 23.0322581,31.1099097 L23.0322581,21.6247526 L24.2441613,21.6247526 C27.2112581,21.6247526 29.9859677,20.2968577 31.8387097,18.030989 C33.6914516,20.2968577 36.4661613,21.6247526 39.4332581,21.6247526 L40.6451613,21.6247526 L40.6451613,31.1099097 Z" id="Shape"></path>
            <polygon id="Shape" points="37.0531575 23 28.1519007 32.070343 25.9468425 29.8233981 25 30.7882265 28.1519007 34 38 23.9648285"></polygon>
            <rect id="Rectangle-path" x="8" y="26" width="9" height="1"></rect>
            <rect id="Rectangle-path" x="12" y="28" width="5" height="1"></rect>
            <rect id="Rectangle-path" x="12" y="30" width="5" height="1"></rect>
            <rect id="Rectangle-path-Copy" x="12" y="32" width="5" height="1"></rect>
            <path d="M6.64811522,6 L26.3518848,6 C26.7408056,6 27,5.79997344 27,5.5 C27,5.19996015 26.7407195,5 26.3518848,5 L6.64811522,5 C6.25919445,5 6.00000002,5.20002656 6.00000002,5.5 C5.99991394,5.79997344 6.25919445,6 6.64811522,6 Z" id="Shape-Copy"></path>
            <path d="M6.6481152,10 L26.3518848,10 C26.7408056,10 27,9.79997344 27,9.5 C27,9.20002656 26.7407195,9 26.3518848,9 L6.6481152,9 C6.25919443,9 6,9.20002656 6,9.5 C6,9.79997344 6.25919443,10 6.6481152,10 Z" id="Shape-Copy-2"></path>
            <path d="M6.6481152,14 L26.3518848,14 C26.7408056,14 27,13.7999734 27,13.5 C27,13.2000266 26.7407195,13 26.3518848,13 L6.6481152,13 C6.25919443,13 6,13.2000266 6,13.5 C6,13.7999734 6.25919443,14 6.6481152,14 Z" id="Shape-Copy-3"></path>
            <path d="M27,17.5 C27,17.1999602 26.7399167,17 26.3498781,17 L6.65012192,17 C6.25999696,17 6,17.2000266 6,17.5 C6,17.7999734 6.26008331,18 6.65012192,18 L26.4148989,18 C26.7399167,18 27,17.7499668 27,17.5 Z" id="Shape-Copy-4"></path>
        </g>
    </g>
</svg>