<?xml version="1.0" encoding="UTF-8"?>
<svg width="48px" height="48px" viewBox="0 0 48 48" version="1.1" xmlns="http://www.w3.org/2000/svg" xmlns:xlink="http://www.w3.org/1999/xlink">
    <!-- Generator: Sketch 51.3 (57544) - http://www.bohemiancoding.com/sketch -->
    <title>icon_mail</title>
    <desc>Created with Sketch.</desc>
    <defs></defs>
    <g id="icon_mail" stroke="none" stroke-width="1" fill="none" fill-rule="evenodd">
        <rect id="Rectangle-2-Copy" fill-rule="nonzero" x="0" y="0" width="48" height="48"></rect>
        <g id="email" transform="translate(3.000000, 3.000000)" fill="#C09563" fill-rule="nonzero">
            <path d="M42.9913492,16.4385715 C42.9868978,16.3891854 42.9770711,16.3403872 42.9619531,16.2931008 C42.9521265,16.2508538 42.9384363,16.2096147 42.9211347,16.1698034 C42.9010614,16.130916 42.8770406,16.0941284 42.8494924,16.0601124 C42.8218601,16.0197132 42.7898604,15.9825057 42.7541653,15.9489936 C42.7426588,15.9389988 42.7377035,15.9253084 42.7255251,15.9153136 L35.8329974,10.5622088 L35.8329974,5.01416306 C35.8329974,3.82671196 34.8703196,2.86401818 33.6828882,2.86401818 L25.9159547,2.86401818 L22.8061073,0.44938868 C22.0378633,-0.149796227 20.960541,-0.149796227 20.1922969,0.44938868 L17.0817776,2.86401818 L9.31484411,2.86401818 C8.12741272,2.86401818 7.16473493,3.82662797 7.16473493,5.01416306 L7.16473493,10.5622928 L0.274390887,15.9153976 C0.262212534,15.9254764 0.257173216,15.9390828 0.245750761,15.9490776 C0.210055589,15.9825057 0.178055917,16.0197972 0.150423654,16.0601964 C0.12287538,16.0942124 0.0988546293,16.130916 0.0787813444,16.1698874 C0.0613956959,16.2096147 0.0477895362,16.2509378 0.0379628653,16.2931848 C0.0230128874,16.3397993 0.0131862165,16.3878416 0.00856684128,16.4365558 C0.00856684128,16.45159 0,16.4645245 0,16.4795587 L0,40.8498551 C0.00100786368,41.305753 0.148491916,41.7492204 0.420699098,42.114829 C0.424982519,42.1212963 0.425738416,42.1291913 0.430693746,42.1349026 C0.435733065,42.140614 0.44648361,42.1470812 0.453622645,42.1549763 C0.856264185,42.6847854 1.48248349,42.9971443 2.14792548,43 L40.8498908,43 C41.5179365,42.9979842 42.1467594,42.6841135 42.5499049,42.1514487 C42.5556161,42.1443095 42.5642669,42.1421258 42.5692223,42.1349866 C42.5742616,42.1278475 42.5749335,42.1213802 42.5793009,42.114913 C42.8515081,41.7492204 42.9989921,41.305753 43,40.8499391 L43,16.4815744 C42.999916,16.4665402 42.9921051,16.4536058 42.9913492,16.4385715 Z M21.0688023,1.58031449 C21.3190885,1.38142609 21.6735205,1.38142609 21.9238067,1.58031449 L23.577207,2.86393419 L19.4203573,2.86393419 L21.0688023,1.58031449 Z M2.32850106,41.5666261 L21.0688863,27.0093893 C21.3193404,26.8108369 21.6735205,26.8108369 21.9238907,27.0093893 L40.6692313,41.5666261 L2.32850106,41.5666261 Z M41.5665659,40.4492227 L22.8061073,25.8783795 C22.0376953,25.2796985 20.9607089,25.2796985 20.1922969,25.8783795 L1.43116643,40.4492227 L1.43116643,17.5731089 L13.1758019,26.6933348 C13.4887436,26.935982 13.9390907,26.8790368 14.1817338,26.5660899 C14.424377,26.253143 14.3674327,25.8027885 14.054491,25.5601413 L2.12281288,16.2952006 L7.16481892,12.3768975 L7.16481892,17.9149484 C7.16481892,18.3107934 7.48573951,18.6316353 7.88149398,18.6316353 C8.27733244,18.6316353 8.59816905,18.3107094 8.59816905,17.9149484 L8.59816905,5.01407907 C8.59816905,4.61823404 8.91900565,4.29739211 9.31484411,4.29739211 L33.6827202,4.29739211 C34.0785587,4.29739211 34.3993953,4.61823404 34.3993953,5.01407907 L34.3993953,17.9149484 C34.3993953,18.3107934 34.7202319,18.6316353 35.1160703,18.6316353 C35.5119088,18.6316353 35.8327454,18.3107094 35.8327454,17.9149484 L35.8327454,12.3768975 L40.8747515,16.2952006 L28.9223281,25.5766873 C28.7167239,25.7324888 28.6106462,25.9868106 28.6447456,26.2425603 C28.678845,26.4983099 28.8477462,26.7160121 29.0870298,26.8125167 C29.3263134,26.9090212 29.5990246,26.8695459 29.8010172,26.7090409 L41.5663979,17.5731089 L41.5665659,40.4492227 Z" id="Shape"></path>
            <path d="M30.999985,16.9999707 L30.999985,14 C30.999985,9.02943359 26.9705547,5 21.9999925,5 C17.0294302,5 13,9.02943359 13,14 C13,18.9705664 17.0294302,23 21.9999925,23 C22.4142206,23 22.7499626,22.6642578 22.7499626,22.2500293 C22.7499626,21.8358008 22.4142206,21.5000586 21.9999925,21.5000586 C17.8578866,21.5000586 14.500028,18.1421973 14.500028,14.0000879 C14.500028,9.85797852 17.8578866,6.50011719 21.9999925,6.50011719 C26.1420984,6.50011719 29.4999569,9.85797852 29.4999569,14.0000879 L29.4999569,17.0000586 C29.4999569,17.8285156 28.8283852,18.5000879 27.9999289,18.5000879 C27.1714725,18.5000879 26.4999008,17.8285156 26.4999008,17.0000586 L26.4999008,14.0000879 C26.4999008,13.5858594 26.1641589,13.2501172 25.7499307,13.2501172 C25.3357026,13.2501172 24.9999607,13.5858594 24.9999607,14.0000879 C24.9999607,15.6569141 23.6568173,17.0000586 21.9999925,17.0000586 C20.3431677,17.0000586 19.0000243,15.6569141 19.0000243,14.0000879 C19.0000243,12.3432617 20.3431677,11.0001172 21.9999925,11.0001172 C22.4142206,11.0001172 22.7499626,10.664375 22.7499626,10.2501465 C22.7499626,9.83591797 22.4142206,9.50017578 21.9999925,9.50017578 C19.9859805,9.49569336 18.2141949,10.8299609 17.6622422,12.7668945 C17.1102895,14.7038281 17.9124666,16.7716309 19.6263324,17.8294824 C21.3401981,18.887334 23.5481845,18.677627 25.0322165,17.3159375 C25.1955171,18.9020117 26.5740804,20.0813281 28.1663057,19.997041 C29.7586188,19.912666 31.0049947,18.5944824 30.999985,16.9999707 Z" id="Shape"></path>
        </g>
    </g>
</svg>