<?xml version="1.0" encoding="UTF-8"?>
<svg width="48px" height="48px" viewBox="0 0 48 48" version="1.1" xmlns="http://www.w3.org/2000/svg" xmlns:xlink="http://www.w3.org/1999/xlink">
    <!-- Generator: Sketch 51.3 (57544) - http://www.bohemiancoding.com/sketch -->
    <title>icon_personal</title>
    <desc>Created with Sketch.</desc>
    <defs></defs>
    <g id="icon_personal" stroke="none" stroke-width="1" fill="none" fill-rule="evenodd">
        <rect id="Rectangle-2" fill-rule="nonzero" x="0" y="0" width="48" height="48"></rect>
        <path d="M30.8634303,32.7503255 L30.8634303,31.9477848 C31.0996305,31.7645961 31.326746,31.563961 31.5447768,31.3546025 C33.2905001,29.508868 34.3897391,27.184226 34.6880553,24.707472 C36.2569692,24.477941 37.6711038,23.6706025 38.6307804,22.4568687 C39.9480503,20.6685987 40.0661503,18.0952345 38.9669113,14.8676252 C38.902297,14.6814924 38.7743174,14.5216386 38.6035265,14.4140152 L38.1038724,14.0912543 C38.1775714,11.1789911 37.1294334,8.34305656 35.1604556,6.12691021 C32.7166928,3.48375988 28.9647448,2.14909981 23.9954577,2.13165327 C19.0352552,2.13165327 15.2742226,3.48375988 12.8304598,6.09201714 C10.861482,8.30816349 9.81334398,11.1440981 9.88704296,14.0563612 L9.38738886,14.3791222 C9.21659801,14.4867455 9.08861843,14.6465994 9.02400407,14.8327321 C7.92476506,18.077788 8.04286512,20.6337056 9.360135,22.4219756 C10.3161777,23.6442146 11.7303123,24.4608216 13.30286,24.6987487 C13.6024254,27.1794282 14.7050711,29.5073414 16.4552232,31.3546025 C16.6715507,31.5635248 16.8988933,31.761543 17.1365697,31.9477848 L17.1365697,32.7503255 C13.6571602,33.3958473 -0.233223627,36.5275007 0.0029764909,45.4252345 C0.0029764909,45.906977 0.409740348,46.2975614 0.911438483,46.2975614 L47.0885615,46.2975614 C47.5902597,46.2975614 47.9970235,45.906977 47.9970235,45.4252345 C48.2332236,36.5275007 34.3428398,33.3958473 30.8634303,32.7503255 Z M12.7577829,22.7534598 C11.9858173,22.5045196 11.3129876,22.0322636 10.8318434,21.4013532 L10.8772665,21.4100765 C9.96880454,20.1364793 9.88704296,18.208637 10.6955741,15.6614426 L11.3587514,15.2340025 C11.6377628,15.0551755 11.7914064,14.7433186 11.7584747,14.4227385 C11.6056259,11.8155716 12.4887645,9.24973127 14.2294913,7.24348857 C16.2826154,5.01033185 19.5803324,3.89375349 23.9954577,3.87630696 C28.410583,3.85886042 31.7083,5.01033185 33.7977626,7.24348857 C35.5384893,9.24973127 36.4216279,11.8155716 36.2687792,14.4227385 C36.2358474,14.7433186 36.3894911,15.0551755 36.6685025,15.2340025 L37.3316797,15.6614426 C38.1402109,18.1999137 38.0857032,20.1364793 37.1499873,21.4100765 C36.66555,22.0415321 35.9897678,22.513788 35.2149633,22.7621831 C36.3107956,21.5649145 36.8462204,19.9879657 36.6957563,18.4005489 C36.5255333,17.44546 36.0070286,16.5797847 35.2331325,15.9580337 C34.8424939,7.23476531 28.4741753,6.25775924 25.7306201,6.25775924 C25.1498858,6.25612363 24.5698328,6.29701395 23.9954577,6.379885 C23.4211962,6.29690491 22.8410296,6.25612363 22.2602953,6.25775924 C19.5349093,6.25775924 13.1756754,7.21731877 12.7577829,15.9580337 C11.9788903,16.5747688 11.4540263,17.4375001 11.2769898,18.3918256 C11.1255038,19.9793514 11.6610421,21.5567365 12.7577829,22.7534598 Z M33.4252932,15.6003797 C29.6132731,15.811919 25.8251001,14.8987018 22.5691724,12.9833992 C22.2006775,12.7348951 21.6981844,12.7832002 21.3881718,13.0968017 C19.5712478,14.9723044 16.2553615,15.4084678 14.6564684,15.5044238 C15.1470379,9.337073 19.0352552,7.99368966 22.3057184,7.99368966 C22.8262671,7.99009131 23.3461345,8.03098163 23.8591884,8.11581542 C23.9791054,8.13936824 24.1026562,8.13936824 24.2225732,8.11581542 C24.7356271,8.03119971 25.2554945,7.99030939 25.7760432,7.99368966 C29.0192525,7.99368966 32.9256391,9.37196607 33.3798701,15.5916565 L33.4252932,15.6003797 Z M14.9744301,22.919202 L15.0107686,22.9279252 C15.0126991,22.7128967 14.931846,22.5047377 14.7836531,22.3434662 C13.5390602,20.9739131 12.9667291,19.7264857 13.1211677,18.69714 C13.1952073,18.1238032 13.4901168,17.5978992 13.9478681,17.2229077 C15.1470379,17.2229077 19.39864,17.004826 22.124026,14.7454994 C25.1933784,16.4398853 28.6675642,17.3415441 32.2079541,17.36248 C32.8166236,17.36248 33.4343778,17.36248 34.0793858,17.266524 C34.5246457,17.6315928 34.8154671,18.1403774 34.8970016,18.69714 C35.0514401,19.7090392 34.4791091,20.9739131 33.2345161,22.3434662 C33.0863233,22.5047377 33.0054702,22.7128967 33.0074006,22.9279252 C33.0074006,22.9279252 33.0074006,23.1023906 33.0074006,23.3815352 L27.7201519,26.1031949 C26.6708783,25.1493055 25.0148656,25.1928128 24.0214624,26.2003503 C23.0280592,27.2078878 23.0733688,28.7980306 24.1226424,29.75192 C25.171916,30.7058094 26.8279286,30.6623021 27.8213318,29.6547646 C28.2816949,29.1878517 28.5381083,28.5692629 28.5377676,27.926358 C28.5418557,27.8478486 28.5418557,27.7693392 28.5377676,27.6908298 L32.7076082,25.5449057 C32.3496742,27.2650252 31.5076435,28.8580031 30.2729301,30.1507915 C28.6624541,31.6396353 26.4824859,32.4226577 24.249827,32.3141621 L23.7955961,32.3141621 C21.5677066,32.4203678 19.3925079,31.6411619 17.7815777,30.1595148 C14.9108378,27.4116852 14.9744301,22.9628183 14.9744301,22.919202 Z M26.7208437,27.926358 C26.7208437,28.3551067 26.3588216,28.7027289 25.9123125,28.7027289 C25.4658034,28.7027289 25.1037813,28.3551067 25.1037813,27.926358 C25.1037813,27.4976094 25.4658034,27.1499871 25.9123125,27.1499871 C26.3588216,27.1499871 26.7208437,27.4976094 26.7208437,27.926358 Z M23.0869957,44.5005681 L1.84715433,44.5005681 C2.56483931,37.9493935 13.6571602,35.2102872 17.127485,34.5037024 L17.127485,36.0651675 C17.127485,38.0453494 19.6348401,39.5544749 23.0869957,39.8074496 L23.0869957,44.5005681 Z M18.944409,36.0651675 L18.944409,36.0389977 L18.944409,33.0556399 C20.4545,33.7280948 22.1040398,34.062196 23.7683422,34.0326459 L24.2225732,34.0326459 C25.8868756,34.062196 27.5364154,33.7280948 29.0465064,33.0556399 L29.0465064,36.0651675 C29.0465064,36.893878 27.0751438,38.0889658 23.9954577,38.0889658 C20.9157715,38.0889658 18.944409,36.893878 18.944409,36.0651675 Z M24.9039197,44.5267379 L24.9039197,39.7987264 C28.3560752,39.5719214 30.8634303,38.0540727 30.8634303,36.0564442 L30.8634303,34.5298722 C34.361009,35.2277337 45.3988222,37.96684 46.143761,44.5267379 L24.9039197,44.5267379 Z" id="Shape" fill="#C09563" fill-rule="nonzero"></path>
    </g>
</svg>