<svg width="139" height="40" viewBox="0 0 139 40" fill="none" xmlns="http://www.w3.org/2000/svg">
<g opacity="0.148493">
<path fill-rule="evenodd" clip-rule="evenodd" d="M75.7244 34.9634C75.7244 34.6034 75.6238 34.3374 75.4241 34.1662C75.2236 33.9957 74.8695 33.9101 74.3624 33.9101V36.1697C74.8394 36.1697 75.1866 36.0813 75.4017 35.9045C75.6169 35.7276 75.7244 35.4139 75.7244 34.9634ZM72.292 37.9438V32.1094H73.9858C74.6424 32.1094 75.2124 32.1718 75.693 32.2981C76.1742 32.4238 76.5731 32.6104 76.8895 32.8567C77.2059 33.1024 77.442 33.4055 77.5977 33.7655C77.7528 34.1262 77.831 34.5494 77.831 35.0357C77.831 35.5936 77.7291 36.0848 77.5258 36.508C77.3225 36.9311 76.9237 37.2764 76.3293 37.5431C75.7349 37.8104 74.8995 37.9438 73.8238 37.9438H72.292Z" fill="white"/>
<path fill-rule="evenodd" clip-rule="evenodd" d="M78.4666 37.9447V32.1104H82.3565V33.704H80.5187V34.2619H82.1769V35.7567H80.5187V36.3693H82.3928V37.9447H78.4666Z" fill="white"/>
<path fill-rule="evenodd" clip-rule="evenodd" d="M85.7176 35.6118L86.0138 34.2701L86.6592 32.1094H88.8811L86.6676 37.9438H84.732L82.5276 32.1094H84.7767L85.3949 34.2343L85.6736 35.6118H85.7176Z" fill="white"/>
<path fill-rule="evenodd" clip-rule="evenodd" d="M89.1682 37.9447V32.1104H93.0574V33.704H91.2204V34.2619H92.8786V35.7567H91.2204V36.3693H93.0937V37.9447H89.1682Z" fill="white"/>
<path fill-rule="evenodd" clip-rule="evenodd" d="M93.7119 37.9447V32.1104H95.8004V36.0626H97.8351V37.9447H93.7119Z" fill="white"/>
<path fill-rule="evenodd" clip-rule="evenodd" d="M101.348 33.9462C101.079 33.9462 100.846 34.0543 100.649 34.2704C100.452 34.4866 100.354 34.7476 100.354 35.0543C100.354 35.3602 100.452 35.6213 100.649 35.8374C100.846 36.0536 101.079 36.1616 101.348 36.1616C101.617 36.1616 101.851 36.055 102.048 35.8416C102.245 35.629 102.344 35.3659 102.344 35.0543C102.344 34.742 102.245 34.4788 102.048 34.2662C101.851 34.0529 101.617 33.9462 101.348 33.9462ZM101.348 31.9834C101.791 31.9834 102.199 32.0627 102.572 32.222C102.945 32.3813 103.273 32.5988 103.553 32.8746C103.834 33.1511 104.055 33.4781 104.216 33.8564C104.378 34.2346 104.459 34.6276 104.459 35.036C104.459 35.5883 104.32 36.0985 104.042 36.5666C103.764 37.0346 103.385 37.4059 102.904 37.6788C102.423 37.9518 101.904 38.0887 101.348 38.0887C100.793 38.0887 100.274 37.9518 99.7929 37.6788C99.3124 37.4059 98.9331 37.0346 98.6558 36.5666C98.3771 36.0985 98.2388 35.5883 98.2388 35.036C98.2388 34.6276 98.3191 34.236 98.4811 33.8606C98.6418 33.4859 98.8639 33.1567 99.1482 32.8746C99.4318 32.5925 99.7608 32.3736 100.134 32.2178C100.507 32.0613 100.913 31.9834 101.348 31.9834Z" fill="white"/>
<path fill-rule="evenodd" clip-rule="evenodd" d="M107.147 34.7115H107.649C107.942 34.7115 108.089 34.5522 108.089 34.2343C108.089 33.9101 107.93 33.748 107.614 33.748H107.147V34.7115ZM107.138 36.2329V37.9438H105.05V32.1094H107.64C108.447 32.1094 109.053 32.2757 109.46 32.609C109.866 32.9424 110.069 33.4813 110.069 34.2252C110.069 34.7894 109.856 35.2652 109.428 35.6525C109.001 36.0399 108.411 36.2329 107.658 36.2329H107.138Z" fill="white"/>
<path fill-rule="evenodd" clip-rule="evenodd" d="M115.77 34.5676L115.51 35.7024L114.855 37.9445H113.601L112.946 35.7024L112.677 34.5676L112.587 35.6392L112.346 37.9445H110.293L111.288 32.1094H113.439L114.264 35.0715L115.097 32.1094H117.248L118.163 37.9445H116.119L115.868 35.6392L115.77 34.5676Z" fill="white"/>
<path fill-rule="evenodd" clip-rule="evenodd" d="M118.548 37.9447V32.1104H122.437V33.704H120.6V34.2619H122.258V35.7567H120.6V36.3693H122.473V37.9447H118.548Z" fill="white"/>
<path fill-rule="evenodd" clip-rule="evenodd" d="M124.974 34.9276L125.046 35.8462V37.9438H123.029V32.1094H125.081L126.874 35.1704L126.811 34.0722V32.1094H128.829V37.9438H126.766L124.974 34.9276Z" fill="white"/>
<path fill-rule="evenodd" clip-rule="evenodd" d="M130.334 37.9447V34.0275H129.169V32.1104H133.578V34.0275H132.413V37.9447H130.334Z" fill="white"/>
<path fill-rule="evenodd" clip-rule="evenodd" d="M22.2845 25.0288C21.9192 24.8457 22.6512 22.085 22.6512 22.085C22.6512 22.085 23.933 22.4527 24.6657 23.7411C24.6657 23.7411 22.6512 25.2134 22.2845 25.0288Z" fill="white"/>
<path fill-rule="evenodd" clip-rule="evenodd" d="M22.1013 21.1641C19.9032 21.1641 18.071 23.0048 18.071 25.2132C18.071 27.6055 19.9032 29.4455 22.1013 29.4455C24.3002 29.4455 26.1316 27.6055 26.1316 25.2132C26.1316 23.0048 24.3002 21.1641 22.1013 21.1641Z" fill="white"/>
<path fill-rule="evenodd" clip-rule="evenodd" d="M17.7053 23.9255C18.0706 23.0048 18.6218 22.2693 19.5368 21.7164C19.3538 21.5332 18.9871 21.5332 18.8041 21.5332C18.0706 21.5332 17.3386 22.0848 17.3386 23.0048C17.3386 23.3725 17.5216 23.7409 17.7053 23.9255Z" fill="white"/>
<path fill-rule="evenodd" clip-rule="evenodd" d="M22.1014 29.6299C21.5517 29.6299 21.0027 29.6299 20.6353 29.4453C20.6353 30.1822 21.368 30.7344 22.1014 30.7344C22.8341 30.7344 23.3838 30.1822 23.5668 29.4453C23.0171 29.6299 22.6511 29.6299 22.1014 29.6299Z" fill="white"/>
<path fill-rule="evenodd" clip-rule="evenodd" d="M26.4977 23.9255C26.6814 23.7409 26.8637 23.3725 26.8637 23.0048C26.8637 22.0848 26.1317 21.5332 25.3989 21.5332C25.2152 21.5332 24.8492 21.5332 24.6655 21.7164C25.5813 22.2693 26.1317 23.0048 26.4977 23.9255Z" fill="white"/>
<path fill-rule="evenodd" clip-rule="evenodd" d="M26.6813 22.6361L26.1316 21.8999L27.0466 21.5322L27.2303 21.8999L26.6813 22.6361Z" fill="white"/>
<path fill-rule="evenodd" clip-rule="evenodd" d="M17.8883 21.7164L17.5223 22.6371L16.7896 21.7164L16.9726 21.5332L17.8883 21.7164Z" fill="white"/>
<path fill-rule="evenodd" clip-rule="evenodd" d="M21.5518 30.5498H22.4682L22.2845 31.6537H21.7355L21.5518 30.5498Z" fill="white"/>
<path fill-rule="evenodd" clip-rule="evenodd" d="M26.4978 25.9492C26.3141 27.2376 25.3991 28.3415 24.4827 29.0783C26.4978 31.1022 29.4287 33.4945 32.1766 35.3352C33.825 33.679 34.9237 31.839 35.6572 29.6306C32.7263 28.1583 29.2464 26.6854 26.4978 25.9492Z" fill="white"/>
<path fill-rule="evenodd" clip-rule="evenodd" d="M39.504 31.6541C39.138 31.4702 38.7713 31.1018 38.2216 30.918C37.4889 33.1271 36.2064 35.151 34.7417 36.9917C35.1077 37.1755 35.6574 37.5439 36.0241 37.7278C40.2367 40.1201 42.9846 39.9362 43.901 38.2794C45.1828 36.071 44.45 34.4148 39.504 31.6541Z" fill="white"/>
<path fill-rule="evenodd" clip-rule="evenodd" d="M19.5368 29.0786C18.6211 28.1586 17.7053 27.054 17.7053 25.7656C14.4078 26.6856 10.3781 28.5263 7.08057 29.9986C7.81328 32.207 9.09502 34.2316 10.5605 36.0716C13.675 34.0477 17.1556 31.287 19.5368 29.0786Z" fill="white"/>
<path fill-rule="evenodd" clip-rule="evenodd" d="M5.79743 30.7344C5.24842 30.9182 4.88171 31.1021 4.5157 31.4705C0.486095 33.8628 -0.614031 36.2558 0.302392 38.0958C1.21812 39.7526 3.96598 39.9358 7.99629 37.5435C8.3623 37.3596 8.91201 36.9919 9.27802 36.8074C7.62958 35.1505 6.53085 33.1267 5.79743 30.7344Z" fill="white"/>
<path fill-rule="evenodd" clip-rule="evenodd" d="M22.1017 8.09754C23.3841 8.09754 24.4829 8.09754 25.7653 8.46526V6.99298C25.7653 2.20772 24.1169 0 22.2847 0C20.2703 0 18.6218 2.20772 18.6218 6.99298V8.2814C19.7199 8.09754 20.8193 8.09754 22.1017 8.09754Z" fill="white"/>
<path fill-rule="evenodd" clip-rule="evenodd" d="M22.1015 8.64941C20.8191 8.64941 19.7197 8.83398 18.804 9.01784V10.4901C19.9034 10.4901 21.3681 10.4901 22.4675 10.8585C21.3681 11.2263 19.9034 11.5947 18.804 11.9624C19.1707 15.0908 19.5367 18.5877 20.2701 21.1645C20.8191 20.9799 21.3681 20.7968 22.1015 20.7968C22.8343 20.7968 23.567 20.9799 24.1167 21.3484C25.0324 17.8515 25.5814 12.6985 25.7651 9.01784C24.4827 8.83398 23.384 8.64941 22.1015 8.64941Z" fill="white"/>
<path fill-rule="evenodd" clip-rule="evenodd" d="M32.9092 35.7033C32.9092 35.7033 34.9243 34.2304 35.8407 32.5742C34.9243 34.5988 34.0086 36.4395 34.0086 36.4395L32.9092 35.7033Z" fill="white"/>
<path fill-rule="evenodd" clip-rule="evenodd" d="M43.6265 16.083H48.3518V29.4458H55.1767V16.083H59.902V10.457H43.6265V16.083Z" fill="white"/>
<path fill-rule="evenodd" clip-rule="evenodd" d="M122.203 10.457V16.083H126.928V29.4458H133.753V16.083H138.478V10.457H122.203Z" fill="white"/>
<path fill-rule="evenodd" clip-rule="evenodd" d="M78.9766 29.4458H85.8022V10.457H78.9766V29.4458Z" fill="white"/>
<path fill-rule="evenodd" clip-rule="evenodd" d="M114.502 22.0612H119.578V18.1932H114.502V15.9076H120.453V10.457H108.377V29.4458H121.153V24.3469H114.502V22.0612Z" fill="white"/>
<path fill-rule="evenodd" clip-rule="evenodd" d="M99.8026 16.9623L99.978 20.4788L94.2021 10.457H87.5525V29.4458H94.0268V22.589L93.8522 19.5995L99.6273 29.4458H106.453V10.457H99.8026V16.9623Z" fill="white"/>
<path fill-rule="evenodd" clip-rule="evenodd" d="M69.7022 19.4243H67.4272V15.3801H69.5269C70.9274 15.3801 71.6273 16.0833 71.6273 17.491C71.6273 18.8973 70.9274 19.4243 69.7022 19.4243ZM74.9526 22.0615C76.3524 20.8306 77.0516 19.2482 77.0516 17.491C77.0516 15.0292 76.3524 13.2706 75.1273 12.2159C73.7275 10.985 71.8024 10.458 69.1768 10.458H61.302V29.4461H67.6017L67.4271 26.4566L67.2518 23.4678L67.9516 24.5233L70.9272 29.4461H77.5769L73.7275 22.9408C74.252 22.5892 74.6027 22.4131 74.9526 22.0615Z" fill="white"/>
</g>
</svg>
