<?xml version="1.0" encoding="UTF-8"?>
<svg width="17px" height="17px" viewBox="0 0 17 17" version="1.1" xmlns="http://www.w3.org/2000/svg" xmlns:xlink="http://www.w3.org/1999/xlink">
    <!-- Generator: Sketch 51.3 (57544) - http://www.bohemiancoding.com/sketch -->
    <title>icons / personal</title>
    <desc>Created with Sketch.</desc>
    <defs></defs>
    <g id="Page-1" stroke="none" stroke-width="1" fill="none" fill-rule="evenodd">
        <g id="20191128_Comilfo" transform="translate(-481.000000, -2056.000000)">
            <g id="Call-to-action" transform="translate(0.000000, 1783.000000)">
                <g id="Form-/-With-icon" transform="translate(464.000000, 258.000000)">
                    <g id="Group-29">
                        <g id="icons-/-personal-2" transform="translate(14.000000, 12.000000)">
                            <g id="baseline-person_outline-24px">
                                <path d="M11.7209302,5.7627907 C12.8539535,5.7627907 13.772093,6.68093023 13.772093,7.81395349 C13.772093,8.94697674 12.8539535,9.86511628 11.7209302,9.86511628 C10.587907,9.86511628 9.66976744,8.94697674 9.66976744,7.81395349 C9.66976744,6.68093023 10.587907,5.7627907 11.7209302,5.7627907 Z M11.7209302,14.5534884 C14.6218605,14.5534884 17.6790698,15.9795349 17.6790698,16.6046512 L17.6790698,17.6790698 L5.7627907,17.6790698 L5.7627907,16.6046512 C5.7627907,15.9795349 8.82,14.5534884 11.7209302,14.5534884 Z M11.7209302,3.90697674 C9.56232558,3.90697674 7.81395349,5.65534884 7.81395349,7.81395349 C7.81395349,9.97255814 9.56232558,11.7209302 11.7209302,11.7209302 C13.8795349,11.7209302 15.627907,9.97255814 15.627907,7.81395349 C15.627907,5.65534884 13.8795349,3.90697674 11.7209302,3.90697674 Z M11.7209302,12.6976744 C9.11302326,12.6976744 3.90697674,14.0065116 3.90697674,16.6046512 L3.90697674,19.5348837 L19.5348837,19.5348837 L19.5348837,16.6046512 C19.5348837,14.0065116 14.3288372,12.6976744 11.7209302,12.6976744 Z" id="Shape" fill="#999999" fill-rule="nonzero"></path>
                                <polygon id="Shape" points="0 0 24 0 24 24 0 24"></polygon>
                            </g>
                        </g>
                    </g>
                </g>
            </g>
        </g>
    </g>
</svg>