<svg width="24" height="24" viewBox="0 0 24 24" fill="none" xmlns="http://www.w3.org/2000/svg">
<path fill-rule="evenodd" clip-rule="evenodd" d="M3.87305 2.85693H7.42861C7.98734 2.85693 8.44448 3.31408 8.44448 3.87281C8.44448 5.14265 8.64765 6.3617 9.02353 7.49947C9.13527 7.85503 9.054 8.25122 8.76956 8.53566L6.53464 10.7706C7.99749 13.6455 10.3543 15.9922 13.2292 17.4652L15.4642 15.2303C15.6673 15.0373 15.9213 14.9357 16.1854 14.9357C16.287 14.9357 16.3988 14.9458 16.5004 14.9865C17.6381 15.3623 18.8673 15.5655 20.127 15.5655C20.6857 15.5655 21.1429 16.0226 21.1429 16.5814V20.1268C21.1429 20.6855 20.6857 21.1426 20.127 21.1426C10.588 21.1426 2.85718 13.4119 2.85718 3.87281C2.85718 3.31408 3.31432 2.85693 3.87305 2.85693ZM6.45337 4.88868C6.51432 5.79281 6.6667 6.67662 6.91051 7.51979L5.69146 8.73884C5.27496 7.51979 5.01083 6.22963 4.9194 4.88868H6.45337ZM16.4698 17.0995C17.3333 17.3433 18.2171 17.4957 19.1111 17.5566V19.0703C17.7702 18.9788 16.48 18.7147 15.2508 18.3084L16.4698 17.0995Z" fill="#999999"/>
</svg>
