<?xml version="1.0" encoding="UTF-8"?>
<svg width="20px" height="20px" viewBox="0 0 20 20" version="1.1" xmlns="http://www.w3.org/2000/svg" xmlns:xlink="http://www.w3.org/1999/xlink">
    <!-- Generator: Sketch 51.3 (57544) - http://www.bohemiancoding.com/sketch -->
    <title>icons / phone</title>
    <desc>Created with Sketch.</desc>
    <defs></defs>
    <g id="Page-1" stroke="none" stroke-width="1" fill="none" fill-rule="evenodd">
        <g id="20191128_Comilfo" transform="translate(-888.000000, -2055.000000)">
            <g id="Call-to-action" transform="translate(0.000000, 1783.000000)">
                <g id="icons-/-phone" transform="translate(886.000000, 270.000000)">
                    <g id="outline-phone-24px">
                        <polygon id="Shape" points="0 0 24 0 24 24 0 24"></polygon>
                        <path d="M6.45333333,4.88888889 C6.51428571,5.79301587 6.66666667,6.6768254 6.91047619,7.52 L5.69142857,8.73904762 C5.27492063,7.52 5.01079365,6.22984127 4.91936508,4.88888889 L6.45333333,4.88888889 Z M16.4698413,17.0996825 C17.3333333,17.3434921 18.2171429,17.495873 19.1111111,17.5568254 L19.1111111,19.0704762 C17.7701587,18.9790476 16.48,18.7149206 15.2507937,18.3085714 L16.4698413,17.0996825 Z M7.42857143,2.85714286 L3.87301587,2.85714286 C3.31428571,2.85714286 2.85714286,3.31428571 2.85714286,3.87301587 C2.85714286,13.4120635 10.5879365,21.1428571 20.1269841,21.1428571 C20.6857143,21.1428571 21.1428571,20.6857143 21.1428571,20.1269841 L21.1428571,16.5815873 C21.1428571,16.0228571 20.6857143,15.5657143 20.1269841,15.5657143 C18.8673016,15.5657143 17.6380952,15.3625397 16.5003175,14.9866667 C16.3987302,14.9460317 16.2869841,14.935873 16.1853968,14.935873 C15.9212698,14.935873 15.6673016,15.0374603 15.464127,15.2304762 L13.2292063,17.4653968 C10.3542857,15.992381 7.99746032,13.6457143 6.53460317,10.7707937 L8.76952381,8.53587302 C9.05396825,8.25142857 9.1352381,7.8552381 9.02349206,7.49968254 C8.64761905,6.36190476 8.44444444,5.14285714 8.44444444,3.87301587 C8.44444444,3.31428571 7.98730159,2.85714286 7.42857143,2.85714286 Z" id="Shape" fill="#999999" fill-rule="nonzero"></path>
                    </g>
                </g>
            </g>
        </g>
    </g>
</svg>