<svg width="24" height="24" viewBox="0 0 24 24" fill="none" xmlns="http://www.w3.org/2000/svg">
<path d="M6.70044 10.9244C8.17244 13.44 10.544 15.4933 13.4369 16.7822L15.6858 14.8267C15.9618 14.5867 16.3707 14.5067 16.7284 14.6133C17.8733 14.9422 19.1102 15.12 20.3778 15.12C20.94 15.12 21.4 15.52 21.4 16.0089V19.1111C21.4 19.6 20.94 20 20.3778 20C10.7791 20 3 13.2356 3 4.88889C3 4.4 3.46 4 4.02222 4H7.6C8.16222 4 8.62222 4.4 8.62222 4.88889C8.62222 6 8.82667 7.06667 9.20489 8.06222C9.31733 8.37333 9.23556 8.72 8.94933 8.96889L6.70044 10.9244Z" fill="white"/>
</svg>
