<svg width="24" height="24" viewBox="0 0 24 24" fill="none" xmlns="http://www.w3.org/2000/svg">
<path fill-rule="evenodd" clip-rule="evenodd" d="M11.7209 3.90674C9.56225 3.90674 7.81388 5.65511 7.81388 7.81372C7.81388 9.97232 9.56225 11.7207 11.7209 11.7207C13.8795 11.7207 15.6278 9.97232 15.6278 7.81372C15.6278 5.65511 13.8795 3.90674 11.7209 3.90674ZM13.7721 7.81371C13.7721 6.68069 12.8539 5.76255 11.7209 5.76255C10.5879 5.76255 9.66974 6.68069 9.66974 7.81371C9.66974 8.94674 10.5879 9.86488 11.7209 9.86488C12.8539 9.86488 13.7721 8.94674 13.7721 7.81371ZM17.6791 16.6044C17.6791 15.9793 14.6219 14.5532 11.721 14.5532C8.82006 14.5532 5.76285 15.9793 5.76285 16.6044V17.6788H17.6791V16.6044ZM3.90698 16.6044C3.90698 14.0063 9.11303 12.6974 11.7209 12.6974C14.3288 12.6974 19.5349 14.0063 19.5349 16.6044V19.5346H3.90698V16.6044Z" fill="#999999"/>
</svg>
